<svg id="图层_1" data-name="图层 1" xmlns="http://www.w3.org/2000/svg" viewBox="0 0 106 49.29"><defs><style>.cls-1{fill:#103268;}</style></defs><title>106120</title><path class="cls-1" d="M68.51,34.07,65.4,45.5s-24.54,0-31.79,1-11.31.86-13.52,4.79a45.44,45.44,0,0,0-4.55,13.4c-.37,3.07.12,5.9,5,6a103.27,103.27,0,0,0,17-1c5.78-.86,6-2.21,6.76-3.93s-.12-2.42-2.62-2.17-13.42.64-13.42.64l2.89-9.16,31.71-1.48a91.93,91.93,0,0,1-5.78,17.12c-3.81,8.08-5.9,8.21-17.09,10.79s-27.41,1.84-33.19.61S-.57,74.64.17,68.86,3.86,52.14,9,43.91s20.53-9.59,24.34-9.83S68.51,34.07,68.51,34.07Z" transform="translate(0 -33.96)"/><path class="cls-1" d="M72.57,34.41s-8.48,26.37-10.2,33.32-.61,15.49,9.34,15.49H101L106,71H81.29s-4.91.05-3.44-4.91c1.6-5.41,8.85-31.7,8.85-31.7Z" transform="translate(0 -33.96)"/></svg>