<svg id="图层_2" data-name="图层 2" xmlns="http://www.w3.org/2000/svg" viewBox="0 0 106 120"><defs><style>.cls-1,.cls-2{fill:#fff;}.cls-1{opacity:0;}</style></defs><title>logo svg white</title><rect class="cls-1" width="106" height="120"/><path class="cls-2" d="M38.12,43.16c11.37,0,24.78,3.45,32.14,3.45s17.86-3,27.42-10.75c0,0-11.55,3.6-19.5,3.6-10.56,0-30.19-7-42.49-7S15.57,41,13.83,43.81a5,5,0,0,1-3.2,2.84C8.44,47.58,0,51.76,0,61.7s5.09,14,13,16.4a7.37,7.37,0,0,1,3.11,1.62,28.75,28.75,0,0,0,19.5,8c11.43,0,15.65-4.85,17.52-6.21a8.14,8.14,0,0,1,2.73-1.74c1.12-.43,12.92-4.6,12.92-13.79S57.81,49.4,43.52,49.4,23,58,23,61.82s3.35,9.94,12.67,9.94,10.93-3.6,10.93-6-3.8-2.19-5.11-2.19-7,.33-7-2.47,4-4.33,8.76-4.33,14.44,3.77,14.44,9.83S49.11,77.91,37.75,77.91,12,72.82,12,60.08,26.75,43.16,38.12,43.16Z" transform="translate(-0.04 -0.08)"/><path class="cls-2" d="M88.31,54.56c3.85-2.17,16-7.14,17.73-22.05,0,0-1.86,6.37-10.9,12.42S73.9,50.83,73.9,60.08s13.32,10.28,16.68,8.6,4.75-3.57,3.88-5.44-4.85,0-6.15.5S83.9,64,83.4,61.39,84.46,56.73,88.31,54.56Z" transform="translate(-0.04 -0.08)"/></svg>